<?xml version="1.0" encoding="UTF-8"?>
<svg version="1.1" xmlns="http://www.w3.org/2000/svg" width="85" height="85">
<path d="M0 0 C0.74679016 -0.00700928 1.49358032 -0.01401855 2.26300049 -0.02124023 C4.72706477 -0.03882025 7.18997716 -0.02719953 9.65405273 -0.01367188 C11.36751018 -0.01636652 13.08096613 -0.02024872 14.79441833 -0.02526855 C18.38311338 -0.03116334 21.9714099 -0.02260046 25.56005859 -0.00390625 C30.16280811 0.01890081 34.7646256 0.00574946 39.36734104 -0.01819611 C42.90438378 -0.03264011 46.44120496 -0.02805489 49.97825432 -0.01768494 C51.67554777 -0.01501466 53.37286126 -0.01829799 55.0701313 -0.02760315 C57.44052674 -0.03774809 59.80940526 -0.02229949 62.1796875 0 C62.88262436 -0.00809692 63.58556122 -0.01619385 64.30979919 -0.02453613 C67.29231976 0.02752051 69.10621708 0.17985101 71.46295166 2.07977295 C72.9130714 5.40789065 72.92019426 8.47642101 72.86572266 12.04003906 C72.86637978 13.16745262 72.86637978 13.16745262 72.86705017 14.31764221 C72.86496415 16.79601231 72.84164252 19.27370156 72.81811523 21.75195312 C72.8125186 23.47259146 72.80824882 25.19323457 72.80525208 26.91387939 C72.79380856 31.43822473 72.76434568 35.96228024 72.73114014 40.48651123 C72.70042859 45.1048999 72.68674442 49.72333548 72.67163086 54.34179688 C72.63947547 63.40051782 72.5882851 72.45902385 72.52514648 81.51757812 C71.04014648 82.01257813 71.04014648 82.01257813 69.52514648 82.51757812 C69.52514648 83.17757812 69.52514648 83.83757812 69.52514648 84.51757812 C44.11514648 84.51757812 18.70514648 84.51757812 -7.47485352 84.51757812 C-7.80485352 83.85757813 -8.13485352 83.19757813 -8.47485352 82.51757812 C-9.46485352 82.18757813 -10.45485352 81.85757813 -11.47485352 81.51757812 C-11.5675124 71.54718785 -11.63859758 61.57689991 -11.6821022 51.60616684 C-11.70298178 46.97638497 -11.731306 42.34689755 -11.77661133 37.71728516 C-11.82005615 33.24986119 -11.84398784 28.78272053 -11.85436249 24.31510162 C-11.86175634 22.61021718 -11.87619484 20.90534833 -11.89777374 19.20058441 C-11.92679046 16.81339448 -11.93081038 14.42737682 -11.92895508 12.04003906 C-11.94333618 11.3344133 -11.95771729 10.62878754 -11.97253418 9.90177917 C-11.94583861 6.72962702 -11.63688396 4.77058729 -9.91365051 2.07977295 C-6.63380323 -0.02116471 -3.77421849 -0.04359967 0 0 Z M-3.47485352 6.51757812 C-3.47485352 7.17757813 -3.47485352 7.83757813 -3.47485352 8.51757812 C-4.13485352 8.51757812 -4.79485352 8.51757812 -5.47485352 8.51757812 C-5.47485352 30.95757813 -5.47485352 53.39757813 -5.47485352 76.51757812 C-2.62472657 77.9426416 -0.20769104 77.6448612 2.97851562 77.64697266 C3.64044418 77.64872498 4.30237274 77.65047729 4.98435974 77.65228271 C7.17636726 77.65669077 9.36829437 77.65376726 11.56030273 77.65039062 C13.07962561 77.65106388 14.59894837 77.65203409 16.11827087 77.65328979 C19.30346705 77.65476528 22.4886352 77.65261669 25.67382812 77.64794922 C29.7653555 77.64224717 33.85681735 77.64553488 37.94834232 77.65152168 C41.08548989 77.65512719 44.2226218 77.65398885 47.35976982 77.65139389 C48.86892136 77.65072484 50.3780743 77.65155228 51.8872242 77.65387344 C53.99191201 77.65640032 56.09649213 77.65255915 58.20117188 77.64697266 C59.40093155 77.64617706 60.60069122 77.64538147 61.83680725 77.64456177 C64.44340918 77.82363419 64.44340918 77.82363419 65.52514648 76.51757812 C65.61166259 75.10187689 65.63219552 73.68198312 65.62280273 72.26367188 C65.61958008 71.40966797 65.61635742 70.55566406 65.61303711 69.67578125 C65.6046582 68.77794922 65.5962793 67.88011719 65.58764648 66.95507812 C65.58313477 66.05337891 65.57862305 65.15167969 65.57397461 64.22265625 C65.56214873 61.98756499 65.54566869 59.75260376 65.52514648 57.51757812 C66.18514648 57.51757812 66.84514648 57.51757812 67.52514648 57.51757812 C67.52514648 42.99757812 67.52514648 28.47757812 67.52514648 13.51757812 C66.86514648 13.51757812 66.20514648 13.51757812 65.52514648 13.51757812 C65.56639648 12.73382812 65.60764648 11.95007813 65.65014648 11.14257812 C65.81243382 8.35641693 65.81243382 8.35641693 63.52514648 6.51757812 C60.61012381 6.22377986 60.61012381 6.22377986 57.14770508 6.29052734 C56.16703316 6.29008926 56.16703316 6.29008926 55.16654968 6.28964233 C53.00209352 6.29103748 50.83798013 6.30660693 48.67358398 6.32226562 C47.1742878 6.32599511 45.67498919 6.32884239 44.1756897 6.33084106 C40.22677905 6.33848264 36.27801519 6.35813553 32.3291626 6.38024902 C28.30076076 6.40069622 24.27233524 6.40984036 20.24389648 6.41992188 C12.33757907 6.44138102 4.43138103 6.47552318 -3.47485352 6.51757812 Z M66.52514648 68.51757812 C66.52514648 70.16757813 66.52514648 71.81757812 66.52514648 73.51757812 C66.85514648 73.51757812 67.18514648 73.51757812 67.52514648 73.51757812 C67.52514648 71.86757812 67.52514648 70.21757813 67.52514648 68.51757812 C67.19514648 68.51757812 66.86514648 68.51757812 66.52514648 68.51757812 Z M-10.47485352 79.51757812 C-9.47485352 81.51757812 -9.47485352 81.51757812 -9.47485352 81.51757812 Z " fill="#5A5B64" transform="translate(12.474853515625,0.482421875)"/>
<path d="M0 0 C3.0604837 2.23937831 3.80338783 3.41016349 5 7 C5.37279581 12.03274337 5.00975759 14.90672968 2 19 C1 20 1 20 -2.16015625 20.09765625 C-5.7734375 20.06510417 -9.38671875 20.03255208 -13 20 C-13 13.4 -13 6.8 -13 0 C-8.5815285 -1.47282383 -4.52154951 -0.97102129 0 0 Z M-8 5 C-8 8.3 -8 11.6 -8 15 C-6.35 15 -4.7 15 -3 15 C-0.64985842 12.162422 -0.64985842 12.162422 -1.3125 8.875 C-1.70644321 6.11913578 -1.70644321 6.11913578 -3 5 C-4.65 5 -6.3 5 -8 5 Z " fill="#60616C" transform="translate(57,32)"/>
<path d="M0 0 C4.14144355 1.77490438 4.99067308 5.10525122 6.625 9.125 C6.93824219 9.82882813 7.25148438 10.53265625 7.57421875 11.2578125 C9.24787497 15.24126577 10.05206921 17.97352592 8.625 22.125 C6.975 21.795 5.325 21.465 3.625 21.125 C3.295 20.135 2.965 19.145 2.625 18.125 C0.645 18.125 -1.335 18.125 -3.375 18.125 C-4.035 19.445 -4.695 20.765 -5.375 22.125 C-6.695 21.795 -8.015 21.465 -9.375 21.125 C-10.73408042 18.06117709 -10.27123023 16.79846169 -9.23046875 13.5234375 C-8.68602544 12.17756305 -8.12960876 10.83648203 -7.5625 9.5 C-7.28857422 8.819375 -7.01464844 8.13875 -6.73242188 7.4375 C-3.74906679 0.1973193 -3.74906679 0.1973193 0 0 Z M-1.375 10.125 C-1.375 10.785 -1.375 11.445 -1.375 12.125 C-0.715 12.125 -0.055 12.125 0.625 12.125 C0.625 11.465 0.625 10.805 0.625 10.125 C-0.035 10.125 -0.695 10.125 -1.375 10.125 Z " fill="#62636D" transform="translate(33.375,30.875)"/>
<path d="M0 0 C2 1 2 1 2 1 Z " fill="#64646F" transform="translate(25,10)"/>
<path d="" fill="#555555" transform="translate(0,0)"/>
<path d="" fill="#555555" transform="translate(0,0)"/>
<path d="" fill="#555555" transform="translate(0,0)"/>
</svg>
