<?xml version="1.0" encoding="UTF-8"?>
<svg version="1.1" xmlns="http://www.w3.org/2000/svg" width="85" height="85">
<path d="M0 0 C0.74679016 -0.00700928 1.49358032 -0.01401855 2.26300049 -0.02124023 C4.72706477 -0.03882025 7.18997716 -0.02719953 9.65405273 -0.01367188 C11.36751018 -0.01636652 13.08096613 -0.02024872 14.79441833 -0.02526855 C18.38311338 -0.03116334 21.9714099 -0.02260046 25.56005859 -0.00390625 C30.16280811 0.01890081 34.7646256 0.00574946 39.36734104 -0.01819611 C42.90438378 -0.03264011 46.44120496 -0.02805489 49.97825432 -0.01768494 C51.67554777 -0.01501466 53.37286126 -0.01829799 55.0701313 -0.02760315 C57.44052674 -0.03774809 59.80940526 -0.02229949 62.1796875 0 C62.88262436 -0.00809692 63.58556122 -0.01619385 64.30979919 -0.02453613 C67.29231976 0.02752051 69.10621708 0.17985101 71.46295166 2.07977295 C72.9130714 5.40789065 72.92019426 8.47642101 72.86572266 12.04003906 C72.86637978 13.16745262 72.86637978 13.16745262 72.86705017 14.31764221 C72.86496415 16.79601231 72.84164252 19.27370156 72.81811523 21.75195312 C72.8125186 23.47259146 72.80824882 25.19323457 72.80525208 26.91387939 C72.79380856 31.43822473 72.76434568 35.96228024 72.73114014 40.48651123 C72.70042859 45.1048999 72.68674442 49.72333548 72.67163086 54.34179688 C72.63947547 63.40051782 72.5882851 72.45902385 72.52514648 81.51757812 C71.04014648 82.01257813 71.04014648 82.01257813 69.52514648 82.51757812 C69.52514648 83.17757812 69.52514648 83.83757812 69.52514648 84.51757812 C44.11514648 84.51757812 18.70514648 84.51757812 -7.47485352 84.51757812 C-7.80485352 83.85757813 -8.13485352 83.19757813 -8.47485352 82.51757812 C-9.46485352 82.18757813 -10.45485352 81.85757813 -11.47485352 81.51757812 C-11.5675124 71.54718785 -11.63859758 61.57689991 -11.6821022 51.60616684 C-11.70298178 46.97638497 -11.731306 42.34689755 -11.77661133 37.71728516 C-11.82005615 33.24986119 -11.84398784 28.78272053 -11.85436249 24.31510162 C-11.86175634 22.61021718 -11.87619484 20.90534833 -11.89777374 19.20058441 C-11.92679046 16.81339448 -11.93081038 14.42737682 -11.92895508 12.04003906 C-11.94333618 11.3344133 -11.95771729 10.62878754 -11.97253418 9.90177917 C-11.94583861 6.72962702 -11.63688396 4.77058729 -9.91365051 2.07977295 C-6.63380323 -0.02116471 -3.77421849 -0.04359967 0 0 Z M-3.47485352 8.51757812 C-3.49547852 19.71695312 -3.51610352 30.91632812 -3.53735352 42.45507812 C-3.54645752 45.99605225 -3.55556152 49.53702637 -3.56494141 53.18530273 C-3.56828509 56.34937238 -3.56828509 56.34937238 -3.57029724 59.51344299 C-3.57183649 60.92673558 -3.57536102 62.34002682 -3.58042908 63.75331116 C-3.58770899 65.88951919 -3.58876085 68.02564672 -3.58837891 70.16186523 C-3.59059952 71.36765732 -3.59282013 72.5734494 -3.59510803 73.81578064 C-3.78309813 76.43432214 -3.78309813 76.43432214 -2.47485352 77.51757812 C-0.39409942 77.61701785 1.69006497 77.64557408 3.77319336 77.64697266 C4.42522232 77.64872498 5.07725128 77.65047729 5.7490387 77.65228271 C7.91401801 77.65670016 10.07891627 77.65376364 12.24389648 77.65039062 C13.74222835 77.6510637 15.24056011 77.65203375 16.7388916 77.65328979 C19.88298581 77.65476662 23.02705166 77.6526127 26.17114258 77.64794922 C30.21001187 77.64225193 34.24881472 77.64553102 38.28768158 77.65152168 C41.38279729 77.65512771 44.47789713 77.65398852 47.57301331 77.65139389 C49.06262724 77.65072474 50.55224259 77.65155264 52.04185486 77.65387344 C54.12030883 77.65640066 56.19865379 77.65255845 58.27709961 77.64697266 C59.4621106 77.64617706 60.64712158 77.64538147 61.86804199 77.64456177 C64.44707989 77.81982686 64.44707989 77.81982686 65.52514648 76.51757812 C65.61936389 74.40076495 65.64257409 72.28077054 65.63867188 70.16186523 C65.63885268 69.15064149 65.63885268 69.15064149 65.63903713 68.11898899 C65.63828822 65.92760021 65.63066103 63.73629552 65.62280273 61.54492188 C65.62133325 60.19567913 65.62031258 58.84643581 65.61975098 57.49719238 C65.61449888 52.48314563 65.60053779 47.46911106 65.58764648 42.45507812 C65.55670898 25.65601563 65.55670898 25.65601563 65.52514648 8.51757812 C42.75514648 8.51757812 19.98514648 8.51757812 -3.47485352 8.51757812 Z M66.52514648 10.51757812 C66.52514648 31.30757813 66.52514648 52.09757813 66.52514648 73.51757812 C66.85514648 73.51757812 67.18514648 73.51757812 67.52514648 73.51757812 C67.52514648 52.72757812 67.52514648 31.93757812 67.52514648 10.51757812 C67.19514648 10.51757812 66.86514648 10.51757812 66.52514648 10.51757812 Z M-10.47485352 79.51757812 C-9.47485352 81.51757812 -9.47485352 81.51757812 -9.47485352 81.51757812 Z " fill="#56575F" transform="translate(12.474853515625,0.482421875)"/>
<path d="M0 0 C0.85722656 0.05542969 1.71445312 0.11085937 2.59765625 0.16796875 C4.9375 0.8125 4.9375 0.8125 6.734375 2.34765625 C8.45630264 5.87537164 8.2569805 9.23168143 8.125 13.0625 C8.10469727 14.18011719 8.10469727 14.18011719 8.08398438 15.3203125 C8.04877204 17.15135416 7.99496851 18.98202169 7.9375 20.8125 C8.5975 20.8125 9.2575 20.8125 9.9375 20.8125 C10.2675 19.1625 10.5975 17.5125 10.9375 15.8125 C11.9375 18.8125 11.9375 18.8125 11.4375 20.9375 C9.9375 22.8125 9.9375 22.8125 6.5625 23.6875 C3.12479234 23.80604164 1.71453351 23.70088279 -1.0625 21.8125 C-2.0525 22.4725 -3.0425 23.1325 -4.0625 23.8125 C-7.625 23.625 -7.625 23.625 -11.0625 22.8125 C-13.0625 19.8125 -13.0625 19.8125 -12.9375 16.75 C-12.0625 13.8125 -12.0625 13.8125 -10.4375 12.4375 C-7.2677173 11.60334666 -4.32346908 11.68707811 -1.0625 11.8125 C-1.17612262 10.3324159 -1.30372908 8.85339926 -1.4375 7.375 C-1.50710937 6.55128906 -1.57671875 5.72757813 -1.6484375 4.87890625 C-1.78507812 4.19699219 -1.92171875 3.51507813 -2.0625 2.8125 C-2.7225 2.4825 -3.3825 2.1525 -4.0625 1.8125 C-4.041875 2.946875 -4.02125 4.08125 -4 5.25 C-4.0625 8.8125 -4.0625 8.8125 -5.0625 9.8125 C-6.72867115 9.85313832 -8.39638095 9.855221 -10.0625 9.8125 C-11.25 7.5625 -11.25 7.5625 -12.0625 4.8125 C-10.8118295 2.31115899 -9.93439006 1.11321696 -7.26171875 0.19140625 C-4.742815 -0.24257894 -2.54756537 -0.20365153 0 0 Z M-2.0625 12.8125 C-4.41223818 14.71005144 -4.41223818 14.71005144 -4.1875 17.9375 C-4.14625 18.88625 -4.105 19.835 -4.0625 20.8125 C-3.0725 20.4825 -2.0825 20.1525 -1.0625 19.8125 C-1.0625 17.5025 -1.0625 15.1925 -1.0625 12.8125 C-1.3925 12.8125 -1.7225 12.8125 -2.0625 12.8125 Z " fill="#646670" transform="translate(28.0625,42.1875)"/>
<path d="M0 0 C2.41004226 2.15410857 3.82543576 3.84234927 4.31616211 7.09667969 C4.39345281 9.51423128 4.34918268 11.89587597 4.25 14.3125 C4.23195313 15.14845703 4.21390625 15.98441406 4.1953125 16.84570312 C4.14841126 18.89763228 4.07667411 20.94896756 4 23 C2.02 23 0.04 23 -2 23 C-2 21.35 -2 19.7 -2 18 C-4.31 18 -6.62 18 -9 18 C-9 19.65 -9 21.3 -9 23 C-10.65 23 -12.3 23 -14 23 C-14.10829314 20.10315842 -14.18743954 17.21038981 -14.25 14.3125 C-14.28351562 13.49587891 -14.31703125 12.67925781 -14.3515625 11.83789062 C-14.41793722 7.73925176 -14.34080776 5.56291539 -12.171875 1.98046875 C-8.20924501 -1.63293665 -5.01304244 -1.23127358 0 0 Z M-7 5 C-9.28728734 6.83883881 -9.28728734 6.83883881 -9.125 9.625 C-9.08375 10.40875 -9.0425 11.1925 -9 12 C-6.69 12 -4.38 12 -2 12 C-2 10.02 -2 8.04 -2 6 C-4.39719432 5.32041397 -4.39719432 5.32041397 -7 5 Z " fill="#646670" transform="translate(32,15)"/>
<path d="M0 0 C0 1.32 0 2.64 0 4 C-1.216875 3.938125 -2.43375 3.87625 -3.6875 3.8125 C-7.59741696 3.8125 -9.87269312 4.51655042 -13 7 C-15.4294516 10.6441774 -15.16179575 12.71241272 -15 17 C-13.68 17 -12.36 17 -11 17 C-10.81824219 16.30132813 -10.63648438 15.60265625 -10.44921875 14.8828125 C-10.19785156 13.97273438 -9.94648437 13.06265625 -9.6875 12.125 C-9.32205078 10.76761719 -9.32205078 10.76761719 -8.94921875 9.3828125 C-8 7 -8 7 -5 5 C-4.34 5.33 -3.68 5.66 -3 6 C-3.33 9.96 -3.66 13.92 -4 18 C-2.02 17.34 -0.04 16.68 2 16 C1.75 18.375 1.75 18.375 1 21 C-0.8125 22.375 -0.8125 22.375 -3 23 C-5.0625 22.625 -5.0625 22.625 -7 22 C-10.0167794 21.8640215 -10.0167794 21.8640215 -12.875 22.8125 C-16 23 -16 23 -18.875 21.0625 C-21.05792184 17.91652441 -21.74947826 15.96383844 -21.48046875 12.125 C-20.22905711 6.59030135 -17.49459394 2.94849231 -12.75 -0.0625 C-8.18757955 -1.20310511 -4.57344097 -0.860761 0 0 Z " fill="#636570" transform="translate(63,15)"/>
<path d="M0 0 C3.66104436 1.6392736 4.18637889 3.77636598 5.59375 7.4140625 C5.89023437 8.24164063 6.18671875 9.06921875 6.4921875 9.921875 C6.811875 10.73398437 7.1315625 11.54609375 7.4609375 12.3828125 C10.21877051 19.74502758 10.21877051 19.74502758 8.6171875 24.171875 C7.2971875 23.841875 5.9771875 23.511875 4.6171875 23.171875 C4.2871875 21.521875 3.9571875 19.871875 3.6171875 18.171875 C-0.4484058 18.36025435 -0.4484058 18.36025435 -4.3828125 19.171875 C-6.44735252 21.57930601 -6.44735252 21.57930601 -7.3828125 24.171875 C-8.7028125 23.511875 -10.0228125 22.851875 -11.3828125 22.171875 C-5.26242459 0.37958472 -5.26242459 0.37958472 0 0 Z M-1.3828125 8.171875 C-1.7128125 9.821875 -2.0428125 11.471875 -2.3828125 13.171875 C-1.3928125 13.171875 -0.4028125 13.171875 0.6171875 13.171875 C0.2871875 11.521875 -0.0428125 9.871875 -0.3828125 8.171875 C-0.7128125 8.171875 -1.0428125 8.171875 -1.3828125 8.171875 Z " fill="#646570" transform="translate(54.3828125,41.828125)"/>
<path d="M0 0 C0.9573046 2.87191379 1.07680149 4.34180541 0.92993164 7.2878418 C0.88981461 8.14850754 0.84969757 9.00917328 0.80836487 9.8959198 C0.75945602 10.82100845 0.71054718 11.74609711 0.66015625 12.69921875 C0.61434921 13.64940384 0.56854218 14.59958893 0.52134705 15.5785675 C0.37372815 18.61516763 0.21820846 21.65130497 0.0625 24.6875 C-0.03893181 26.74541713 -0.13984966 28.80335966 -0.24023438 30.86132812 C-0.48752541 35.90786625 -0.74190326 40.95400344 -1 46 C-1.66 46 -2.32 46 -3 46 C-4.29449495 42.11651516 -4.13203312 39.09302664 -4 35 C-3.505 34.505 -3.505 34.505 -3 34 C-2.86562692 31.82943057 -2.7963381 29.65477951 -2.75390625 27.48046875 C-2.72095538 26.13475942 -2.68774395 24.78905646 -2.65429688 23.44335938 C-2.60695773 21.31702245 -2.56255941 19.190709 -2.52319336 17.06420898 C-2.48336239 15.01518007 -2.43183176 12.96669547 -2.37890625 10.91796875 C-2.3538501 9.68844482 -2.32879395 8.4589209 -2.30297852 7.19213867 C-2.02063654 4.21742369 -1.55999063 2.50480116 0 0 Z " fill="#24243C" transform="translate(14,22)"/>
<path d="M0 0 C0.33 0 0.66 0 1 0 C1 16.83 1 33.66 1 51 C-1 49 -1 49 -1.20254517 46.89926147 C-1.18033905 46.03322296 -1.15813293 45.16718445 -1.13525391 44.27490234 C-1.11508209 43.29403656 -1.09491028 42.31317078 -1.0741272 41.30258179 C-1.04193085 40.24108917 -1.0097345 39.17959656 -0.9765625 38.0859375 C-0.95153656 37.00116119 -0.92651062 35.91638489 -0.90072632 34.79873657 C-0.81835928 31.32384766 -0.72183383 27.84951301 -0.625 24.375 C-0.56677756 22.02346036 -0.50947394 19.67189778 -0.453125 17.3203125 C-0.3127557 11.54656621 -0.16075128 5.7732128 0 0 Z " fill="#525555" transform="translate(76,17)"/>
<path d="M0 0 C0.99 0 1.98 0 3 0 C3 3.63 3 7.26 3 11 C2.34 11 1.68 11 1 11 C-0.28317892 7.15046324 -0.06643637 4.05261865 0 0 Z " fill="#646569" transform="translate(10,57)"/>
<path d="" fill="#555555" transform="translate(0,0)"/>
<path d="" fill="#555555" transform="translate(0,0)"/>
<path d="" fill="#555555" transform="translate(0,0)"/>
</svg>
