<svg width="109" height="13" viewBox="0 0 109 13" fill="none" xmlns="http://www.w3.org/2000/svg">
<path d="M39.1056 4.2265C39.0729 3.81793 38.9197 3.49924 38.6459 3.27043C38.3763 3.04163 37.9657 2.92723 37.4141 2.92723C37.0627 2.92723 36.7747 2.97013 36.5499 3.05593C36.3293 3.13765 36.1659 3.25001 36.0597 3.39301C35.9534 3.53601 35.8983 3.69944 35.8942 3.8833C35.886 4.03447 35.9126 4.17135 35.9739 4.29392C36.0392 4.41241 36.1414 4.52068 36.2803 4.61874C36.4192 4.71271 36.5969 4.79851 36.8135 4.87614C37.03 4.95377 37.2874 5.02323 37.5857 5.08451L38.6153 5.30515C39.3099 5.45223 39.9044 5.64631 40.3987 5.88737C40.8931 6.12843 41.2976 6.41239 41.6122 6.73925C41.9268 7.06202 42.1577 7.42566 42.3047 7.83015C42.4559 8.23464 42.5335 8.6759 42.5376 9.15393C42.5335 9.97926 42.3272 10.6779 41.9186 11.2499C41.5101 11.8219 40.9258 12.2571 40.1658 12.5553C39.41 12.8536 38.5009 13.0027 37.4386 13.0027C36.3477 13.0027 35.3957 12.8413 34.5826 12.5186C33.7737 12.1958 33.1445 11.6994 32.695 11.0293C32.2497 10.3551 32.025 9.49305 32.0209 8.44301H35.2568C35.2772 8.82707 35.3732 9.14985 35.5448 9.41134C35.7164 9.67283 35.9575 9.87099 36.268 10.0058C36.5826 10.1406 36.9565 10.2081 37.3896 10.2081C37.7532 10.2081 38.0576 10.1631 38.3027 10.0732C38.5479 9.98335 38.7338 9.85873 38.8604 9.69938C38.9871 9.54004 39.0525 9.35822 39.0566 9.15393C39.0525 8.9619 38.9891 8.79439 38.8666 8.65139C38.7481 8.5043 38.552 8.37355 38.2782 8.25915C38.0045 8.14067 37.6347 8.03035 37.1689 7.92821L35.9187 7.65855C34.8074 7.41749 33.931 7.01504 33.2895 6.4512C32.6521 5.88328 32.3355 5.10903 32.3396 4.12845C32.3355 3.33172 32.5479 2.6351 32.9769 2.03858C33.41 1.43797 34.0086 0.97015 34.7726 0.635117C35.5408 0.300085 36.4212 0.132568 37.4141 0.132568C38.4274 0.132568 39.3037 0.302128 40.0433 0.641246C40.7828 0.980365 41.3528 1.4584 41.7532 2.07535C42.1577 2.68821 42.3619 3.40527 42.366 4.2265H39.1056Z" fill="#5E5441"/>
<path d="M49.5942 2.27197H46.3728V13.0025H49.5942V2.27197Z" fill="#5E5441"/>
<path d="M52.8461 3.25635L52.8461 0.0349506L43.1203 0.0349505L43.1203 3.25635L52.8461 3.25635Z" fill="#5E5441"/>
<path d="M78.0232 0.072998H74.8018V13.0027H78.0232V0.072998Z" fill="#5E5441"/>
<path d="M84.527 13.0027L84.527 9.78129L74.8014 9.78129L74.8014 13.0027L84.527 13.0027Z" fill="#5E5441"/>
<path d="M22.4267 13.0026H18.6484L22.9053 0.105957H27.6912L31.9481 13.0026H28.1698L25.3486 3.65757H25.2479L22.4267 13.0026Z" fill="#5E5441"/>
<path d="M27.6916 0.105957L31.128 10.5344H19.463L22.9019 0.105957H27.6916Z" fill="#5E5441"/>
<path d="M54.4247 13.0026H50.6464L54.9033 0.105957H59.6891L63.946 13.0026H60.1677L57.3466 3.65757H57.2458L54.4247 13.0026Z" fill="#5E5441"/>
<path d="M59.6893 0.105957L63.1257 10.5344H51.4607L54.8996 0.105957H59.6893Z" fill="#5E5441"/>
<path d="M88.8894 13.0026H85.1111L89.368 0.105957H94.1538L98.4107 13.0026H94.6324L91.8113 3.65757H91.7105L88.8894 13.0026Z" fill="#5E5441"/>
<path d="M94.1536 0.106201L97.5901 10.5347H85.925L89.364 0.106201H94.1536Z" fill="#5E5441"/>
<path d="M98.9932 0.0161133H104.727C106.282 0.0161133 107.543 1.27658 107.543 2.83145V2.83145C107.543 4.38632 106.282 5.64679 104.727 5.64679H98.9932V0.0161133Z" fill="#5E5441"/>
<path d="M98.9932 5.64673H105.041C107.072 5.64673 108.719 7.2934 108.719 9.32468V9.32468C108.719 11.356 107.072 13.0026 105.041 13.0026H98.9932V5.64673Z" fill="#5E5441"/>
<path d="M64.5309 0.0161133H70.5418C72.5731 0.0161133 74.2198 1.66279 74.2198 3.69406V3.69406C74.2198 5.72534 72.5731 7.37201 70.5418 7.37201H64.5309V0.0161133Z" fill="#5E5441"/>
<path d="M71.9543 8.37964H68.7329L70.9986 12.9297H74.22L71.9543 8.37964Z" fill="#5E5441"/>
<path d="M67.751 0H64.5296V12.9297H67.751V0Z" fill="#5E5441"/>
<path d="M9.24316 0.0778809C11.2009 0.0781139 12.7879 1.6651 12.7881 3.6228V9.32104C12.7879 11.2787 11.2009 12.8657 9.24316 12.866H3.54492C1.58722 12.8657 0.000231999 11.2787 0 9.32104V3.6228C0.000220146 1.66509 1.58721 0.0781 3.54492 0.0778809H9.24316ZM6.65625 1.58276C6.60482 1.2888 6.18327 1.2888 6.13184 1.58276L5.69336 4.09546C5.54409 4.9514 4.87352 5.62197 4.01758 5.77124L1.50488 6.20972C1.21092 6.26115 1.21092 6.6827 1.50488 6.73413L4.01758 7.17261C4.87352 7.32187 5.54409 7.99244 5.69336 8.84839L6.13184 11.3611C6.18329 11.655 6.6048 11.655 6.65625 11.3611L7.09473 8.84839C7.24399 7.99244 7.91456 7.32187 8.77051 7.17261L11.2832 6.73413C11.5771 6.68268 11.5771 6.26117 11.2832 6.20972L8.77051 5.77124C7.91456 5.62197 7.24399 4.9514 7.09473 4.09546L6.65625 1.58276Z" fill="#5E5441"/>
</svg>
