<?xml version="1.0" encoding="UTF-8"?>
<svg version="1.1" xmlns="http://www.w3.org/2000/svg" width="85" height="85">
<path d="M0 0 C0.74679016 -0.00700928 1.49358032 -0.01401855 2.26300049 -0.02124023 C4.72706477 -0.03882025 7.18997716 -0.02719953 9.65405273 -0.01367188 C11.36751018 -0.01636652 13.08096613 -0.02024872 14.79441833 -0.02526855 C18.38311338 -0.03116334 21.9714099 -0.02260046 25.56005859 -0.00390625 C30.16280811 0.01890081 34.7646256 0.00574946 39.36734104 -0.01819611 C42.90438378 -0.03264011 46.44120496 -0.02805489 49.97825432 -0.01768494 C51.67554777 -0.01501466 53.37286126 -0.01829799 55.0701313 -0.02760315 C57.44052674 -0.03774809 59.80940526 -0.02229949 62.1796875 0 C62.88262436 -0.00809692 63.58556122 -0.01619385 64.30979919 -0.02453613 C67.29231976 0.02752051 69.10621708 0.17985101 71.46295166 2.07977295 C72.9130714 5.40789065 72.92019426 8.47642101 72.86572266 12.04003906 C72.86637978 13.16745262 72.86637978 13.16745262 72.86705017 14.31764221 C72.86496415 16.79601231 72.84164252 19.27370156 72.81811523 21.75195312 C72.8125186 23.47259146 72.80824882 25.19323457 72.80525208 26.91387939 C72.79380856 31.43822473 72.76434568 35.96228024 72.73114014 40.48651123 C72.70042859 45.1048999 72.68674442 49.72333548 72.67163086 54.34179688 C72.63947547 63.40051782 72.5882851 72.45902385 72.52514648 81.51757812 C71.04014648 82.01257813 71.04014648 82.01257813 69.52514648 82.51757812 C69.52514648 83.17757812 69.52514648 83.83757812 69.52514648 84.51757812 C44.11514648 84.51757812 18.70514648 84.51757812 -7.47485352 84.51757812 C-7.80485352 83.85757813 -8.13485352 83.19757813 -8.47485352 82.51757812 C-9.46485352 82.18757813 -10.45485352 81.85757813 -11.47485352 81.51757812 C-11.5675124 71.54718785 -11.63859758 61.57689991 -11.6821022 51.60616684 C-11.70298178 46.97638497 -11.731306 42.34689755 -11.77661133 37.71728516 C-11.82005615 33.24986119 -11.84398784 28.78272053 -11.85436249 24.31510162 C-11.86175634 22.61021718 -11.87619484 20.90534833 -11.89777374 19.20058441 C-11.92679046 16.81339448 -11.93081038 14.42737682 -11.92895508 12.04003906 C-11.94333618 11.3344133 -11.95771729 10.62878754 -11.97253418 9.90177917 C-11.94583861 6.72962702 -11.63688396 4.77058729 -9.91365051 2.07977295 C-6.63380323 -0.02116471 -3.77421849 -0.04359967 0 0 Z M-3.47485352 8.51757812 C-3.47485352 27.98757813 -3.47485352 47.45757813 -3.47485352 67.51757812 C-3.14485352 67.51757812 -2.81485352 67.51757812 -2.47485352 67.51757812 C-1.39578966 56.73058921 -1.35683403 46.03347257 -1.41235352 35.20507812 C-1.41738246 33.48177215 -1.42194288 31.75846473 -1.42602539 30.03515625 C-1.43691152 25.86259403 -1.45409787 21.69010244 -1.47485352 17.51757812 C-0.48485352 17.18757813 0.50514648 16.85757812 1.52514648 16.51757812 C1.52514648 15.52757812 1.52514648 14.53757812 1.52514648 13.51757812 C2.51514648 13.84757813 3.50514648 14.17757813 4.52514648 14.51757812 C7.22186424 14.59077893 9.89191558 14.6094136 12.58764648 14.58007812 C13.76919312 14.57439819 13.76919312 14.57439819 14.97460938 14.56860352 C17.49151056 14.55638676 20.0082973 14.53775905 22.52514648 14.51757812 C25.83764348 14.49101744 29.15008319 14.47100228 32.46264648 14.45507812 C33.22520752 14.44677979 33.98776855 14.43848145 34.7734375 14.42993164 C37.96734233 14.41508974 40.47122803 14.49960531 43.52514648 15.51757812 C44.18514648 15.18757812 44.84514648 14.85757812 45.52514648 14.51757812 C45.52514648 13.85757812 45.52514648 13.19757812 45.52514648 12.51757812 C46.16452148 12.22882812 46.80389648 11.94007812 47.46264648 11.64257812 C49.67720728 10.68934362 49.67720728 10.68934362 50.52514648 8.51757812 C32.70514648 8.51757812 14.88514648 8.51757812 -3.47485352 8.51757812 Z M64.52514648 8.51757812 C64.52514648 9.83757813 64.52514648 11.15757813 64.52514648 12.51757812 C63.86514648 12.51757812 63.20514648 12.51757812 62.52514648 12.51757812 C61.86514648 14.16757813 61.20514648 15.81757813 60.52514648 17.51757812 C59.53514648 17.18757813 58.54514648 16.85757812 57.52514648 16.51757812 C57.52514648 17.17757813 57.52514648 17.83757813 57.52514648 18.51757812 C58.51514648 18.84757812 59.50514648 19.17757813 60.52514648 19.51757812 C60.85514648 31.06757813 61.18514648 42.61757813 61.52514648 54.51757812 C61.85514648 54.51757812 62.18514648 54.51757812 62.52514648 54.51757812 C62.85514648 42.96757813 63.18514648 31.41757812 63.52514648 19.51757812 C63.85514648 31.39757813 64.18514648 43.27757813 64.52514648 55.51757812 C64.85514648 55.51757812 65.18514648 55.51757812 65.52514648 55.51757812 C65.52514648 40.00757812 65.52514648 24.49757812 65.52514648 8.51757812 C65.19514648 8.51757812 64.86514648 8.51757812 64.52514648 8.51757812 Z M-1.47485352 17.51757812 C-1.14485352 18.17757813 -0.81485352 18.83757813 -0.47485352 19.51757812 C-0.14485352 18.85757812 0.18514648 18.19757812 0.52514648 17.51757812 C-0.13485352 17.51757812 -0.79485352 17.51757812 -1.47485352 17.51757812 Z M53.52514648 22.51757812 C54.52514648 24.51757812 54.52514648 24.51757812 54.52514648 24.51757812 Z M5.52514648 25.51757812 C5.52514648 35.08757813 5.52514648 44.65757813 5.52514648 54.51757812 C6.51514648 54.18757813 7.50514648 53.85757813 8.52514648 53.51757812 C7.86514648 53.51757812 7.20514648 53.51757812 6.52514648 53.51757812 C6.52514648 44.27757812 6.52514648 35.03757812 6.52514648 25.51757812 C6.19514648 25.51757812 5.86514648 25.51757812 5.52514648 25.51757812 Z M7.52514648 25.51757812 C7.52514648 33.43757813 7.52514648 41.35757813 7.52514648 49.51757812 C7.85514648 48.85757813 8.18514648 48.19757812 8.52514648 47.51757812 C9.51514648 47.18757813 10.50514648 46.85757813 11.52514648 46.51757812 C12.25838445 44.50249454 12.25838445 44.50249454 12.52514648 42.51757812 C13.51514648 42.51757812 14.50514648 42.51757812 15.52514648 42.51757812 C16.57406887 40.8812592 17.57421352 39.2127195 18.52514648 37.51757812 C19.18514648 37.18757813 19.84514648 36.85757813 20.52514648 36.51757812 C20.52514648 35.85757813 20.52514648 35.19757812 20.52514648 34.51757812 C21.60795898 34.17726563 21.60795898 34.17726563 22.71264648 33.83007812 C26.08947066 32.25422684 28.08281688 30.30881196 30.52514648 27.51757812 C30.52514648 26.85757812 30.52514648 26.19757812 30.52514648 25.51757812 C22.93514648 25.51757812 15.34514648 25.51757812 7.52514648 25.51757812 Z M50.52514648 28.51757812 C49.86514648 30.49757813 49.20514648 32.47757813 48.52514648 34.51757812 C47.86514648 34.51757812 47.20514648 34.51757812 46.52514648 34.51757812 C46.27764648 35.32195313 46.03014648 36.12632813 45.77514648 36.95507812 C44.52514648 39.51757812 44.52514648 39.51757812 42.40014648 40.33007812 C41.78139648 40.39195313 41.16264648 40.45382813 40.52514648 40.51757812 C40.52514648 41.17757812 40.52514648 41.83757813 40.52514648 42.51757812 C39.86514648 42.51757812 39.20514648 42.51757812 38.52514648 42.51757812 C38.52514648 43.17757812 38.52514648 43.83757813 38.52514648 44.51757812 C37.86514648 44.51757812 37.20514648 44.51757812 36.52514648 44.51757812 C36.25702148 45.30132812 35.98889648 46.08507812 35.71264648 46.89257812 C34.52514648 49.51757812 34.52514648 49.51757812 31.52514648 51.51757812 C38.12514648 51.51757812 44.72514648 51.51757812 51.52514648 51.51757812 C51.52514648 43.92757812 51.52514648 36.33757813 51.52514648 28.51757812 C51.19514648 28.51757812 50.86514648 28.51757812 50.52514648 28.51757812 Z M27.52514648 30.51757812 C28.52514648 32.51757812 28.52514648 32.51757812 28.52514648 32.51757812 Z M44.52514648 34.51757812 C45.52514648 36.51757812 45.52514648 36.51757812 45.52514648 36.51757812 Z M8.52514648 49.51757812 C8.52514648 50.17757812 8.52514648 50.83757813 8.52514648 51.51757812 C9.18514648 51.18757813 9.84514648 50.85757813 10.52514648 50.51757812 C9.86514648 50.18757813 9.20514648 49.85757813 8.52514648 49.51757812 Z M30.52514648 52.51757812 C30.52514648 53.17757812 30.52514648 53.83757813 30.52514648 54.51757812 C37.45514648 54.51757812 44.38514648 54.51757812 51.52514648 54.51757812 C51.52514648 54.18757813 51.52514648 53.85757813 51.52514648 53.51757812 C44.59514648 53.18757813 37.66514648 52.85757813 30.52514648 52.51757812 Z M66.52514648 68.51757812 C66.52514648 70.16757813 66.52514648 71.81757812 66.52514648 73.51757812 C66.85514648 73.51757812 67.18514648 73.51757812 67.52514648 73.51757812 C67.52514648 71.86757812 67.52514648 70.21757813 67.52514648 68.51757812 C67.19514648 68.51757812 66.86514648 68.51757812 66.52514648 68.51757812 Z M59.52514648 70.51757812 C59.19514648 71.17757812 58.86514648 71.83757812 58.52514648 72.51757812 C39.71514648 72.51757812 20.90514648 72.51757812 1.52514648 72.51757812 C1.19514648 71.52757813 0.86514648 70.53757812 0.52514648 69.51757812 C-0.79485352 69.51757812 -2.11485352 69.51757812 -3.47485352 69.51757812 C-3.51727075 71.85052588 -3.51578289 74.18460379 -3.47485352 76.51757812 C-1.63802129 78.35441035 1.3117012 77.64532006 3.77319336 77.64697266 C4.42522232 77.64872498 5.07725128 77.65047729 5.7490387 77.65228271 C7.91401801 77.65670016 10.07891627 77.65376364 12.24389648 77.65039062 C13.74222835 77.6510637 15.24056011 77.65203375 16.7388916 77.65328979 C19.88298581 77.65476662 23.02705166 77.6526127 26.17114258 77.64794922 C30.21001187 77.64225193 34.24881472 77.64553102 38.28768158 77.65152168 C41.38279729 77.65512771 44.47789713 77.65398852 47.57301331 77.65139389 C49.06262724 77.65072474 50.55224259 77.65155264 52.04185486 77.65387344 C54.12030883 77.65640066 56.19865379 77.65255845 58.27709961 77.64697266 C59.4621106 77.64617706 60.64712158 77.64538147 61.86804199 77.64456177 C64.44707989 77.81982686 64.44707989 77.81982686 65.52514648 76.51757812 C65.5972016 74.83148847 65.60900716 73.14257153 65.58764648 71.45507812 C65.57862305 70.53597656 65.56959961 69.616875 65.56030273 68.66992188 C65.54870117 67.95964844 65.53709961 67.249375 65.52514648 66.51757812 C63.26068177 66.51757812 61.14620067 69.13968207 59.52514648 70.51757812 Z M-10.47485352 79.51757812 C-9.47485352 81.51757812 -9.47485352 81.51757812 -9.47485352 81.51757812 Z " fill="#5A5B63" transform="translate(12.474853515625,0.482421875)"/>
<path d="M0 0 C0.74679016 -0.00700928 1.49358032 -0.01401855 2.26300049 -0.02124023 C4.72706477 -0.03882025 7.18997716 -0.02719953 9.65405273 -0.01367188 C11.36751018 -0.01636652 13.08096613 -0.02024872 14.79441833 -0.02526855 C18.38311338 -0.03116334 21.9714099 -0.02260046 25.56005859 -0.00390625 C30.16280811 0.01890081 34.7646256 0.00574946 39.36734104 -0.01819611 C42.90438378 -0.03264011 46.44120496 -0.02805489 49.97825432 -0.01768494 C51.67554777 -0.01501466 53.37286126 -0.01829799 55.0701313 -0.02760315 C57.44052674 -0.03774809 59.80940526 -0.02229949 62.1796875 0 C62.88262436 -0.00809692 63.58556122 -0.01619385 64.30979919 -0.02453613 C67.29231976 0.02752051 69.10621708 0.17985101 71.46295166 2.07977295 C72.9130714 5.40789065 72.92019426 8.47642101 72.86572266 12.04003906 C72.86637978 13.16745262 72.86637978 13.16745262 72.86705017 14.31764221 C72.86496415 16.79601231 72.84164252 19.27370156 72.81811523 21.75195312 C72.8125186 23.47259146 72.80824882 25.19323457 72.80525208 26.91387939 C72.79380856 31.43822473 72.76434568 35.96228024 72.73114014 40.48651123 C72.70042859 45.1048999 72.68674442 49.72333548 72.67163086 54.34179688 C72.63947547 63.40051782 72.5882851 72.45902385 72.52514648 81.51757812 C71.04014648 82.01257813 71.04014648 82.01257813 69.52514648 82.51757812 C69.52514648 83.17757812 69.52514648 83.83757812 69.52514648 84.51757812 C44.11514648 84.51757812 18.70514648 84.51757812 -7.47485352 84.51757812 C-7.80485352 83.85757813 -8.13485352 83.19757813 -8.47485352 82.51757812 C-9.46485352 82.18757813 -10.45485352 81.85757813 -11.47485352 81.51757812 C-11.5675124 71.54718785 -11.63859758 61.57689991 -11.6821022 51.60616684 C-11.70298178 46.97638497 -11.731306 42.34689755 -11.77661133 37.71728516 C-11.82005615 33.24986119 -11.84398784 28.78272053 -11.85436249 24.31510162 C-11.86175634 22.61021718 -11.87619484 20.90534833 -11.89777374 19.20058441 C-11.92679046 16.81339448 -11.93081038 14.42737682 -11.92895508 12.04003906 C-11.94333618 11.3344133 -11.95771729 10.62878754 -11.97253418 9.90177917 C-11.94583861 6.72962702 -11.63688396 4.77058729 -9.91365051 2.07977295 C-6.63380323 -0.02116471 -3.77421849 -0.04359967 0 0 Z M-4.47485352 5.51757812 C-4.80485352 6.50757813 -5.13485352 7.49757813 -5.47485352 8.51757812 C-4.81485352 8.51757812 -4.15485352 8.51757812 -3.47485352 8.51757812 C-3.47485352 11.15757813 -3.47485352 13.79757813 -3.47485352 16.51757812 C-3.80485352 14.20757812 -4.13485352 11.89757812 -4.47485352 9.51757812 C-5.46485352 10.01257813 -5.46485352 10.01257813 -6.47485352 10.51757812 C-6.56749112 18.8102719 -6.6385861 27.1027499 -6.6821022 35.39583302 C-6.70298676 39.2465777 -6.73131925 43.09696867 -6.77661133 46.94750977 C-6.82003965 50.6628079 -6.84398408 54.37776562 -6.85436249 58.09329796 C-6.86175942 59.51153614 -6.87620404 60.92975546 -6.89777374 62.34784889 C-6.92676154 64.3323821 -6.92848701 66.31725711 -6.92895508 68.30200195 C-6.93783752 69.43229324 -6.94671997 70.56258453 -6.95587158 71.72712708 C-6.71394898 74.56639126 -6.71394898 74.56639126 -4.85826111 76.3837738 C-1.72566142 77.87397425 0.64465178 77.88475635 4.11376953 77.87402344 C5.09247009 77.87709 5.09247009 77.87709 6.09094238 77.88021851 C8.23987171 77.88321815 10.38802759 77.8647796 12.53686523 77.84570312 C14.03090729 77.84264477 15.52495219 77.84076923 17.01899719 77.84002686 C20.14526329 77.83542945 23.27127097 77.82102184 26.39746094 77.79882812 C30.41271738 77.77047266 34.42777103 77.75960874 38.4431181 77.75514603 C41.5253758 77.75099889 44.60759219 77.74118855 47.68982887 77.72927094 C49.17106609 77.72355953 50.65230729 77.71880371 52.13355064 77.71500397 C54.19734132 77.7081625 56.26096824 77.69454238 58.32470703 77.67871094 C59.5006694 77.67188293 60.67663177 77.66505493 61.88822937 77.65802002 C64.44931105 77.81624653 64.44931105 77.81624653 65.52514648 76.51757812 C65.59777691 74.51878878 65.60887286 72.51757399 65.58764648 70.51757812 C65.57862305 69.42445312 65.56959961 68.33132812 65.56030273 67.20507812 C65.54870117 66.31820312 65.53709961 65.43132812 65.52514648 64.51757812 C65.52514648 45.85091146 65.52514648 27.18424479 65.52514648 8.51757812 C65.19514648 9.83757813 64.86514648 11.15757813 64.52514648 12.51757812 C63.52514648 12.51757812 62.52514648 12.51757812 61.52514648 12.51757812 C62.18514648 10.53757812 62.84514648 8.55757812 63.52514648 6.51757812 C62.44635341 5.21395217 62.44635341 5.21395217 59.86131287 5.39732361 C58.67328568 5.39954422 57.48525848 5.40176483 56.26123047 5.40405273 C55.60759521 5.40390671 54.95395996 5.40376068 54.28051758 5.40361023 C52.1107252 5.4043093 49.94101769 5.41210135 47.77124023 5.41992188 C46.27051338 5.42178608 44.76978591 5.42320997 43.26905823 5.42420959 C39.31196422 5.4280346 35.3549067 5.43786473 31.39782715 5.44891357 C27.36279799 5.45912807 23.32776296 5.4637073 19.29272461 5.46875 C11.37018179 5.47948702 3.44766867 5.49656322 -4.47485352 5.51757812 Z M66.52514648 68.51757812 C66.52514648 70.16757813 66.52514648 71.81757812 66.52514648 73.51757812 C66.85514648 73.51757812 67.18514648 73.51757812 67.52514648 73.51757812 C67.52514648 71.86757812 67.52514648 70.21757813 67.52514648 68.51757812 C67.19514648 68.51757812 66.86514648 68.51757812 66.52514648 68.51757812 Z M-10.47485352 79.51757812 C-9.47485352 81.51757812 -9.47485352 81.51757812 -9.47485352 81.51757812 Z " fill="#61626C" transform="translate(12.474853515625,0.482421875)"/>
<path d="M0 0 C19.14 0 38.28 0 58 0 C57.67 0.99 57.34 1.98 57 3 C38.19 3 19.38 3 0 3 C0 2.01 0 1.02 0 0 Z " fill="#000000" transform="translate(14,70)"/>
<path d="M0 0 C0.66 0 1.32 0 2 0 C2 9.57 2 19.14 2 29 C-6.91 29 -15.82 29 -25 29 C-25 28.34 -25 27.68 -25 27 C-23.68 27 -22.36 27 -21 27 C-21.33 26.34 -21.66 25.68 -22 25 C-15.07 25 -8.14 25 -1 25 C-1.01160156 23.36289062 -1.02320312 21.72578125 -1.03515625 20.0390625 C-1.04453353 17.9010428 -1.0536338 15.76302188 -1.0625 13.625 C-1.07087891 12.54476562 -1.07925781 11.46453125 -1.08789062 10.3515625 C-1.09111328 9.3203125 -1.09433594 8.2890625 -1.09765625 7.2265625 C-1.10551147 5.79691162 -1.10551147 5.79691162 -1.11352539 4.33837891 C-1 2 -1 2 0 0 Z " fill="#121212" transform="translate(65,27)"/>
<path d="M0 0 C0.33 0 0.66 0 1 0 C1.33 13.2 1.66 26.4 2 40 C0.68 39.67 -0.64 39.34 -2 39 C-1.88175936 33.92781866 -1.75751147 28.8558336 -1.62768555 23.78393555 C-1.58436438 22.05839035 -1.54268727 20.33280307 -1.50268555 18.60717773 C-1.44491474 16.12731236 -1.38123997 13.64765828 -1.31640625 11.16796875 C-1.29969376 10.39599655 -1.28298126 9.62402435 -1.26576233 8.82865906 C-1.17772105 5.64817067 -1.01254805 3.03764416 0 0 Z " fill="#5A5A5A" transform="translate(76,17)"/>
<path d="M0 0 C8.58 0 17.16 0 26 0 C25.67 0.66 25.34 1.32 25 2 C13.615 1.505 13.615 1.505 2 1 C2.08713634 4.87606477 2.19405605 8.74987141 2.3125 12.625 C2.33505859 13.71941406 2.35761719 14.81382813 2.38085938 15.94140625 C2.57367809 21.72596779 2.79435248 26.10128932 6 31 C3.69 31 1.38 31 -1 31 C-0.67 30.34 -0.34 29.68 0 29 C0.33 29 0.66 29 1 29 C0.67 19.43 0.34 9.86 0 0 Z " fill="#010101" transform="translate(18,25)"/>
<path d="M0 0 C5.51754805 -0.07402793 11.03480856 -0.12854366 16.55273438 -0.16479492 C18.43071526 -0.17990325 20.30866076 -0.20039094 22.18652344 -0.22631836 C24.88225019 -0.26261246 27.57751146 -0.27970545 30.2734375 -0.29296875 C31.53756973 -0.31619453 31.53756973 -0.31619453 32.82723999 -0.33988953 C35.19287109 -0.34057617 35.19287109 -0.34057617 39 0 C39.66 0.99 40.32 1.98 41 3 C38.09800399 3 35.20067388 2.93821808 32.29959106 2.87174988 C29.08908371 2.80516446 25.87842899 2.76428693 22.66748047 2.7253418 C20.97591626 2.70016488 19.28446117 2.66602046 17.59326172 2.62280273 C15.14784249 2.56198921 12.70385096 2.53376715 10.2578125 2.51171875 C9.50557404 2.48591232 8.75333557 2.4601059 7.978302 2.43351746 C3.83504615 2.43131575 2.20810622 2.82539898 -1.01611328 5.53051758 C-1.6707959 6.34544678 -2.32547852 7.16037598 -3 8 C-3.33 6.68 -3.66 5.36 -4 4 C-2.68 3.67 -1.36 3.34 0 3 C0 2.01 0 1.02 0 0 Z M-3 4 C-2.67 4.66 -2.34 5.32 -2 6 C-1.67 5.34 -1.34 4.68 -1 4 C-1.66 4 -2.32 4 -3 4 Z " fill="#4C4D4E" transform="translate(14,14)"/>
<path d="M0 0 C0.33 0 0.66 0 1 0 C1 11.55 1 23.1 1 35 C0.67 35 0.34 35 0 35 C0 25.43 0 15.86 0 6 C-0.99 5.67 -1.98 5.34 -3 5 C-2.03114628 3.31503702 -1.03013277 1.64821244 0 0 Z " fill="#54545A" transform="translate(67,21)"/>
<path d="M0 0 C0.66 0 1.32 0 2 0 C2.33 1.32 2.66 2.64 3 4 C2.34 4 1.68 4 1 4 C0.67 4.99 0.34 5.98 0 7 C-1.32 7 -2.64 7 -4 7 C-4 5 -4 5 -2.5625 3.5 C-2.046875 3.005 -1.53125 2.51 -1 2 C-0.67 1.34 -0.34 0.68 0 0 Z " fill="#565760" transform="translate(25,43)"/>
<path d="M0 0 C0.66 0.33 1.32 0.66 2 1 C2 2.32 2 3.64 2 5 C1.34 5 0.68 5 0 5 C-0.33 5.99 -0.66 6.98 -1 8 C-2.2077558 4.37673261 -1.54311128 3.35853631 0 0 Z " fill="#464646" transform="translate(75,8)"/>
<path d="" fill="#555555" transform="translate(0,0)"/>
<path d="" fill="#555555" transform="translate(0,0)"/>
<path d="" fill="#555555" transform="translate(0,0)"/>
</svg>
