<?xml version="1.0" encoding="UTF-8"?>
<svg version="1.1" xmlns="http://www.w3.org/2000/svg" width="85" height="85">
<path d="M0 0 C28.05 0 56.1 0 85 0 C85 28.05 85 56.1 85 85 C56.95 85 28.9 85 0 85 C0 56.95 0 28.9 0 0 Z " fill="#646671" transform="translate(0,0)"/>
<path d="M0 0 C28.05 0 56.1 0 85 0 C85 28.05 85 56.1 85 85 C56.95 85 28.9 85 0 85 C0 56.95 0 28.9 0 0 Z M9 7 C9 30.43 9 53.86 9 78 C31.77 78 54.54 78 78 78 C78.02906477 65.5830101 78.02906477 65.5830101 78.04882812 53.16601562 C78.05481611 48.10488848 78.06191521 43.04377936 78.07543945 37.98266602 C78.08626991 33.90431457 78.09227717 29.82598243 78.09487724 25.74761772 C78.09673121 24.18822361 78.10035127 22.6288306 78.10573006 21.06944466 C78.11294262 18.89270838 78.11399085 16.71605286 78.11352539 14.53930664 C78.115746 13.29798477 78.11796661 12.0566629 78.12025452 10.77772522 C78.31747011 8.092183 78.31747011 8.092183 77 7 C74.88318683 6.9057826 72.76319242 6.88257239 70.64428711 6.88647461 C69.97013795 6.88635407 69.29598879 6.88623354 68.60141087 6.88610935 C66.41002209 6.88685826 64.2187174 6.89448546 62.02734375 6.90234375 C60.678101 6.90381324 59.32885769 6.90483391 57.97961426 6.90539551 C52.9655675 6.9106476 47.95153293 6.9246087 42.9375 6.9375 C26.1384375 6.9684375 26.1384375 6.9684375 9 7 Z " fill="#5A5B63" transform="translate(0,0)"/>
<path d="M0 0 C11.199375 -0.020625 22.39875 -0.04125 33.9375 -0.0625 C39.24896118 -0.07615601 39.24896118 -0.07615601 44.66772461 -0.09008789 C48.97961426 -0.09460449 48.97961426 -0.09460449 50.99586487 -0.09544373 C52.40915745 -0.09698297 53.8224487 -0.10050751 55.23573303 -0.10557556 C57.37194107 -0.11285548 59.5080686 -0.11390734 61.64428711 -0.11352539 C62.85007919 -0.115746 64.05587128 -0.11796661 65.29820251 -0.12025452 C68 0 68 0 69 1 C69.09429342 3.17805719 69.11742538 5.3592128 69.11352539 7.53930664 C69.11367142 8.22220261 69.11381744 8.90509857 69.1139679 9.60868835 C69.11326876 11.87587614 69.1054764 14.14298274 69.09765625 16.41015625 C69.09579207 17.97814387 69.09436817 19.54613207 69.09336853 21.11412048 C69.08954334 25.24876503 69.07971306 29.38337466 69.06866455 33.51800537 C69.05665582 38.47475717 69.05204819 43.43152061 69.04621124 48.38828278 C69.03650129 55.92554616 69.01734477 63.46273288 69 71 C46.23 71 23.46 71 0 71 C0 47.57 0 24.14 0 0 Z M6 12 C3.84273763 16.31452474 4.77034975 22.07355091 4.75 26.8125 C4.729375 28.00166016 4.70875 29.19082031 4.6875 30.41601562 C4.68234375 31.56392578 4.6771875 32.71183594 4.671875 33.89453125 C4.6625293 34.94487549 4.65318359 35.99521973 4.64355469 37.07739258 C5.16852621 41.38179948 6.97708399 43.97708399 10 47 C12.74485593 47.14507695 15.38480543 47.18652423 18.125 47.125 C18.87910156 47.11597656 19.63320313 47.10695312 20.41015625 47.09765625 C22.27357254 47.0740687 24.13682593 47.03819719 26 47 C25.99476318 47.6612085 25.98952637 48.32241699 25.98413086 49.00366211 C25.96342344 51.98159851 25.95035988 54.95951982 25.9375 57.9375 C25.92912109 58.97841797 25.92074219 60.01933594 25.91210938 61.09179688 C25.90888672 62.08115234 25.90566406 63.07050781 25.90234375 64.08984375 C25.89710693 65.00628662 25.89187012 65.92272949 25.88647461 66.86694336 C25.76078789 68.98363023 25.76078789 68.98363023 27 70 C28.97712807 70.09900199 30.95790038 70.12970773 32.9375 70.125 C34.01902344 70.12757812 35.10054687 70.13015625 36.21484375 70.1328125 C38.95659663 70.19007789 38.95659663 70.19007789 41 69 C41 61.74 41 54.48 41 47 C48.1875 47.3125 48.1875 47.3125 50.42260742 47.45043945 C54.03732483 47.52610201 55.79936391 47.15050427 58.70068359 44.97412109 C61.57471308 41.2566198 61.6786815 38.43546492 61.55859375 33.92578125 C61.55626236 33.16073776 61.55393097 32.39569427 61.55152893 31.60746765 C61.54182056 29.99788183 61.52010026 28.3883287 61.48706055 26.77905273 C61.43744721 24.30987279 61.42556647 21.84268138 61.41992188 19.37304688 C61.40584282 17.80727037 61.38964091 16.2415112 61.37109375 14.67578125 C61.36573105 13.93620682 61.36036835 13.19663239 61.35484314 12.43464661 C61.38291557 8.26104254 61.38291557 8.26104254 59 5 C56.94353705 4.66037864 56.94353705 4.66037864 54.55371094 4.66186523 C53.63225281 4.63942245 52.71079468 4.61697968 51.76141357 4.59385681 C50.76249084 4.58222 49.76356812 4.57058319 48.734375 4.55859375 C47.70822083 4.54482193 46.68206665 4.53105011 45.62481689 4.51686096 C43.44931453 4.49355452 41.27374023 4.47630671 39.09814453 4.46459961 C35.77633351 4.43771314 32.45772495 4.3628447 29.13671875 4.28710938 C27.02345895 4.27044895 24.91017394 4.25668359 22.796875 4.24609375 C21.80604919 4.21623886 20.81522339 4.18638397 19.79437256 4.15562439 C12.75500283 4.20028929 9.6633701 5.95684958 6 12 Z " fill="#FCFCFC" transform="translate(9,7)"/>
<path d="M0 0 C0.78552246 0.01047363 1.57104492 0.02094727 2.38037109 0.03173828 C3.23115234 0.03818359 4.08193359 0.04462891 4.95849609 0.05126953 C6.29267578 0.07640625 6.29267578 0.07640625 7.65380859 0.10205078 C8.99958984 0.11558594 8.99958984 0.11558594 10.37255859 0.12939453 C12.59157445 0.15300108 14.81005937 0.18592768 17.02880859 0.22705078 C17.68880859 2.20705078 18.34880859 4.18705078 19.02880859 6.22705078 C20.01880859 6.22705078 21.00880859 6.22705078 22.02880859 6.22705078 C22.00818359 5.42267578 21.98755859 4.61830078 21.96630859 3.78955078 C22.02880859 1.22705078 22.02880859 1.22705078 23.02880859 0.22705078 C25.02839223 0.18624295 27.02926113 0.18450722 29.02880859 0.22705078 C29.98951293 3.1091638 30.13462743 4.92555122 30.09130859 7.91455078 C30.08228516 8.72279297 30.07326172 9.53103516 30.06396484 10.36376953 C30.05236328 10.97865234 30.04076172 11.59353516 30.02880859 12.22705078 C31.34880859 12.22705078 32.66880859 12.22705078 34.02880859 12.22705078 C34.02880859 8.26705078 34.02880859 4.30705078 34.02880859 0.22705078 C35.67880859 0.22705078 37.32880859 0.22705078 39.02880859 0.22705078 C39.02880859 6.16705078 39.02880859 12.10705078 39.02880859 18.22705078 C24.83880859 18.22705078 10.64880859 18.22705078 -3.97119141 18.22705078 C-3.97119141 0.45741987 -3.97119141 0.45741987 0 0 Z " fill="#FDFDFD" transform="translate(24.97119140625,17.77294921875)"/>
<path d="M0 0 C14.19 0 28.38 0 43 0 C43 1.98 43 3.96 43 6 C28.81 6 14.62 6 0 6 C0 4.02 0 2.04 0 0 Z " fill="#FFFFFF" transform="translate(21,42)"/>
<path d="M0 0 C28.05 0 56.1 0 85 0 C84.67 1.32 84.34 2.64 84 4 C84 3.34 84 2.68 84 2 C73.60385587 1.95372683 63.2077361 1.91815641 52.81151009 1.89637566 C47.98449195 1.88592374 43.15754409 1.87173896 38.33056641 1.84912109 C33.67514222 1.82744278 29.01978578 1.81544199 24.36431503 1.81024551 C22.58524381 1.80654072 20.80617644 1.79930652 19.02713394 1.78853989 C16.54160706 1.77409146 14.05636267 1.77201925 11.57080078 1.77294922 C10.82993225 1.76575867 10.08906372 1.75856812 9.32574463 1.75115967 C5.20964494 1.63828793 5.20964494 1.63828793 2 4 C1.79653652 6.4830404 1.71676245 8.8550415 1.7253418 11.33959961 C1.72023087 12.09585129 1.71511993 12.85210297 1.70985413 13.63127136 C1.69592119 16.13837535 1.69691767 18.64520558 1.69921875 21.15234375 C1.69533376 22.89107872 1.6909995 24.62981275 1.68623352 26.36854553 C1.67876329 30.01615472 1.67906831 33.66366714 1.68432617 37.3112793 C1.690121 41.99014622 1.67319352 46.66861732 1.6499815 51.34741879 C1.63526302 54.93931909 1.63436989 58.53112367 1.63749123 62.12304878 C1.63697703 63.84825995 1.63172096 65.57347635 1.62167931 67.29865837 C1.60936887 69.70970385 1.61607364 72.11997319 1.62768555 74.53100586 C1.62004181 75.24643555 1.61239807 75.96186523 1.60452271 76.69897461 C1.64172717 80.62444318 1.64172717 80.62444318 3.52326965 83.96681213 C4.01059067 84.30776413 4.49791168 84.64871613 5 85 C3.35 85 1.7 85 0 85 C0 56.95 0 28.9 0 0 Z " fill="#B9B9BC" transform="translate(0,0)"/>
<path d="M0 0 C0.33 0 0.66 0 1 0 C1.01458252 0.74161377 1.02916504 1.48322754 1.04418945 2.24731445 C1.11859457 5.60290631 1.21528006 8.95749494 1.3125 12.3125 C1.33505859 13.47974609 1.35761719 14.64699219 1.38085938 15.84960938 C1.41630859 16.96787109 1.45175781 18.08613281 1.48828125 19.23828125 C1.51446533 20.26993408 1.54064941 21.30158691 1.56762695 22.36450195 C2.04871035 25.29691033 2.69133671 26.20735923 5 28 C3.35 28 1.7 28 0 28 C0 18.76 0 9.52 0 0 Z " fill="#F3F3F3" transform="translate(0,57)"/>
<path d="M0 0 C2.31 0 4.62 0 7 0 C6.21625 0.598125 5.4325 1.19625 4.625 1.8125 C1.85425677 3.91085249 1.85425677 3.91085249 0 7 C0 4.69 0 2.38 0 0 Z " fill="#F9F9FA" transform="translate(0,0)"/>
</svg>
