<?xml version="1.0" encoding="UTF-8"?>
<svg version="1.1" xmlns="http://www.w3.org/2000/svg" width="85" height="85">
<path d="M0 0 C0.74679016 -0.00700928 1.49358032 -0.01401855 2.26300049 -0.02124023 C4.72706477 -0.03882025 7.18997716 -0.02719953 9.65405273 -0.01367188 C11.36751018 -0.01636652 13.08096613 -0.02024872 14.79441833 -0.02526855 C18.38311338 -0.03116334 21.9714099 -0.02260046 25.56005859 -0.00390625 C30.16280811 0.01890081 34.7646256 0.00574946 39.36734104 -0.01819611 C42.90438378 -0.03264011 46.44120496 -0.02805489 49.97825432 -0.01768494 C51.67554777 -0.01501466 53.37286126 -0.01829799 55.0701313 -0.02760315 C57.44052674 -0.03774809 59.80940526 -0.02229949 62.1796875 0 C62.88262436 -0.00809692 63.58556122 -0.01619385 64.30979919 -0.02453613 C67.29231976 0.02752051 69.10621708 0.17985101 71.46295166 2.07977295 C72.9130714 5.40789065 72.92019426 8.47642101 72.86572266 12.04003906 C72.86637978 13.16745262 72.86637978 13.16745262 72.86705017 14.31764221 C72.86496415 16.79601231 72.84164252 19.27370156 72.81811523 21.75195312 C72.8125186 23.47259146 72.80824882 25.19323457 72.80525208 26.91387939 C72.79380856 31.43822473 72.76434568 35.96228024 72.73114014 40.48651123 C72.70042859 45.1048999 72.68674442 49.72333548 72.67163086 54.34179688 C72.63947547 63.40051782 72.5882851 72.45902385 72.52514648 81.51757812 C71.04014648 82.01257813 71.04014648 82.01257813 69.52514648 82.51757812 C69.52514648 83.17757812 69.52514648 83.83757812 69.52514648 84.51757812 C44.11514648 84.51757812 18.70514648 84.51757812 -7.47485352 84.51757812 C-7.80485352 83.85757813 -8.13485352 83.19757813 -8.47485352 82.51757812 C-9.46485352 82.18757813 -10.45485352 81.85757813 -11.47485352 81.51757812 C-11.5675124 71.54718785 -11.63859758 61.57689991 -11.6821022 51.60616684 C-11.70298178 46.97638497 -11.731306 42.34689755 -11.77661133 37.71728516 C-11.82005615 33.24986119 -11.84398784 28.78272053 -11.85436249 24.31510162 C-11.86175634 22.61021718 -11.87619484 20.90534833 -11.89777374 19.20058441 C-11.92679046 16.81339448 -11.93081038 14.42737682 -11.92895508 12.04003906 C-11.94333618 11.3344133 -11.95771729 10.62878754 -11.97253418 9.90177917 C-11.94583861 6.72962702 -11.63688396 4.77058729 -9.91365051 2.07977295 C-6.63380323 -0.02116471 -3.77421849 -0.04359967 0 0 Z M-3.47485352 6.51757812 C-3.47485352 7.17757813 -3.47485352 7.83757813 -3.47485352 8.51757812 C-4.13485352 8.51757812 -4.79485352 8.51757812 -5.47485352 8.51757812 C-5.47485352 30.95757813 -5.47485352 53.39757813 -5.47485352 76.51757812 C-2.62472657 77.9426416 -0.20769104 77.6448612 2.97851562 77.64697266 C3.64044418 77.64872498 4.30237274 77.65047729 4.98435974 77.65228271 C7.17636726 77.65669077 9.36829437 77.65376726 11.56030273 77.65039062 C13.07962561 77.65106388 14.59894837 77.65203409 16.11827087 77.65328979 C19.30346705 77.65476528 22.4886352 77.65261669 25.67382812 77.64794922 C29.7653555 77.64224717 33.85681735 77.64553488 37.94834232 77.65152168 C41.08548989 77.65512719 44.2226218 77.65398885 47.35976982 77.65139389 C48.86892136 77.65072484 50.3780743 77.65155228 51.8872242 77.65387344 C53.99191201 77.65640032 56.09649213 77.65255915 58.20117188 77.64697266 C59.40093155 77.64617706 60.60069122 77.64538147 61.83680725 77.64456177 C64.44340918 77.82363419 64.44340918 77.82363419 65.52514648 76.51757812 C65.61166259 75.10187689 65.63219552 73.68198312 65.62280273 72.26367188 C65.61958008 71.40966797 65.61635742 70.55566406 65.61303711 69.67578125 C65.6046582 68.77794922 65.5962793 67.88011719 65.58764648 66.95507812 C65.58313477 66.05337891 65.57862305 65.15167969 65.57397461 64.22265625 C65.56214873 61.98756499 65.54566869 59.75260376 65.52514648 57.51757812 C66.18514648 57.51757812 66.84514648 57.51757812 67.52514648 57.51757812 C67.52514648 42.99757812 67.52514648 28.47757812 67.52514648 13.51757812 C66.86514648 13.51757812 66.20514648 13.51757812 65.52514648 13.51757812 C65.56639648 12.73382812 65.60764648 11.95007813 65.65014648 11.14257812 C65.81243382 8.35641693 65.81243382 8.35641693 63.52514648 6.51757812 C60.61012381 6.22377986 60.61012381 6.22377986 57.14770508 6.29052734 C56.16703316 6.29008926 56.16703316 6.29008926 55.16654968 6.28964233 C53.00209352 6.29103748 50.83798013 6.30660693 48.67358398 6.32226562 C47.1742878 6.32599511 45.67498919 6.32884239 44.1756897 6.33084106 C40.22677905 6.33848264 36.27801519 6.35813553 32.3291626 6.38024902 C28.30076076 6.40069622 24.27233524 6.40984036 20.24389648 6.41992188 C12.33757907 6.44138102 4.43138103 6.47552318 -3.47485352 6.51757812 Z M66.52514648 68.51757812 C66.52514648 70.16757813 66.52514648 71.81757812 66.52514648 73.51757812 C66.85514648 73.51757812 67.18514648 73.51757812 67.52514648 73.51757812 C67.52514648 71.86757812 67.52514648 70.21757813 67.52514648 68.51757812 C67.19514648 68.51757812 66.86514648 68.51757812 66.52514648 68.51757812 Z M-10.47485352 79.51757812 C-9.47485352 81.51757812 -9.47485352 81.51757812 -9.47485352 81.51757812 Z " fill="#5A5B64" transform="translate(12.474853515625,0.482421875)"/>
<path d="M0 0 C4.68367273 2.63893501 8.10290566 5.89052572 9.65625 11.1171875 C10.49532834 17.74301305 9.9168705 22.22731334 6.65625 28.1171875 C7.17123047 28.61645752 7.68621094 29.11572754 8.21679688 29.63012695 C10.53771618 31.88882252 12.84703963 34.15902515 15.15625 36.4296875 C16.37248047 37.60821289 16.37248047 37.60821289 17.61328125 38.81054688 C18.38027344 39.56787109 19.14726563 40.32519531 19.9375 41.10546875 C20.64970703 41.80196533 21.36191406 42.49846191 22.09570312 43.21606445 C23.65625 45.1171875 23.65625 45.1171875 23.65625 48.1171875 C20.10802554 47.53837482 18.47202197 46.29026391 15.984375 43.73828125 C15.32050781 43.06474609 14.65664063 42.39121094 13.97265625 41.69726562 C13.29074219 40.99021484 12.60882813 40.28316406 11.90625 39.5546875 C10.86017578 38.48831055 10.86017578 38.48831055 9.79296875 37.40039062 C8.0737842 35.64588036 6.36199128 33.88475398 4.65625 32.1171875 C2.34625 32.7771875 0.03625 33.4371875 -2.34375 34.1171875 C-2.67375 32.7971875 -3.00375 31.4771875 -3.34375 30.1171875 C-2.86164062 29.78847656 -2.37953125 29.45976563 -1.8828125 29.12109375 C2.61556191 25.73354241 4.77445376 22.98778601 5.63671875 17.359375 C5.67982087 12.41125188 3.70273745 9.19195839 0.34375 5.7421875 C-3.96212705 3.13863394 -6.96588895 2.89963049 -11.90625 3.6796875 C-16.14725481 5.4531986 -17.83980706 7.28762771 -20.34375 11.1171875 C-21.32643953 14.82117113 -21.456101 18.29725365 -21.34375 22.1171875 C-22.66375 22.1171875 -23.98375 22.1171875 -25.34375 22.1171875 C-25.89374899 15.46831083 -25.9427684 10.29015954 -21.87890625 4.77734375 C-16.08845516 -1.48459445 -8.05548866 -3.03423406 0 0 Z " fill="#646671" transform="translate(46.34375,14.8828125)"/>
<path d="M0 0 C1.32 0 2.64 0 4 0 C4 0.99 4 1.98 4 3 C8.455 3.99 8.455 3.99 13 5 C13 9.62 13 14.24 13 19 C10.68880208 19.68359375 8.37760417 20.3671875 6.06640625 21.05078125 C5.38449219 21.36402344 4.70257813 21.67726563 4 22 C3.67 22.99 3.34 23.98 3 25 C2.01 24.67 1.02 24.34 0 24 C0 23.34 0 22.68 0 22 C-0.928125 21.690625 -1.85625 21.38125 -2.8125 21.0625 C-4.875 20.375 -6.9375 19.6875 -9 19 C-9 14.38 -9 9.76 -9 5 C-6.03 4.34 -3.06 3.68 0 3 C0 2.01 0 1.02 0 0 Z M-4 8 C-5.33550847 10.84627591 -5.33550847 10.84627591 -5 14 C-3.08333333 17.08333333 -3.08333333 17.08333333 0 19 C3.57893502 19.0715787 5.234958 18.6663269 7.9375 16.3125 C9.42635424 13.07205253 9.14074607 11.35094158 8 8 C3.22805891 4.32927608 0.77194109 4.32927608 -4 8 Z " fill="#646671" transform="translate(26,43)"/>
<path d="M0 0 C2 1 2 1 2 1 Z " fill="#64646F" transform="translate(25,10)"/>
<path d="" fill="#555555" transform="translate(0,0)"/>
<path d="" fill="#555555" transform="translate(0,0)"/>
<path d="" fill="#555555" transform="translate(0,0)"/>
</svg>
