<?xml version="1.0" encoding="UTF-8"?>
<svg version="1.1" xmlns="http://www.w3.org/2000/svg" width="85" height="85">
<path d="M0 0 C0.74679016 -0.00700928 1.49358032 -0.01401855 2.26300049 -0.02124023 C4.72706477 -0.03882025 7.18997716 -0.02719953 9.65405273 -0.01367188 C11.36751018 -0.01636652 13.08096613 -0.02024872 14.79441833 -0.02526855 C18.38311338 -0.03116334 21.9714099 -0.02260046 25.56005859 -0.00390625 C30.16280811 0.01890081 34.7646256 0.00574946 39.36734104 -0.01819611 C42.90438378 -0.03264011 46.44120496 -0.02805489 49.97825432 -0.01768494 C51.67554777 -0.01501466 53.37286126 -0.01829799 55.0701313 -0.02760315 C57.44052674 -0.03774809 59.80940526 -0.02229949 62.1796875 0 C62.88262436 -0.00809692 63.58556122 -0.01619385 64.30979919 -0.02453613 C67.29231976 0.02752051 69.10621708 0.17985101 71.46295166 2.07977295 C72.9130714 5.40789065 72.92019426 8.47642101 72.86572266 12.04003906 C72.86637978 13.16745262 72.86637978 13.16745262 72.86705017 14.31764221 C72.86496415 16.79601231 72.84164252 19.27370156 72.81811523 21.75195312 C72.8125186 23.47259146 72.80824882 25.19323457 72.80525208 26.91387939 C72.79380856 31.43822473 72.76434568 35.96228024 72.73114014 40.48651123 C72.70042859 45.1048999 72.68674442 49.72333548 72.67163086 54.34179688 C72.63947547 63.40051782 72.5882851 72.45902385 72.52514648 81.51757812 C71.04014648 82.01257813 71.04014648 82.01257813 69.52514648 82.51757812 C69.52514648 83.17757812 69.52514648 83.83757812 69.52514648 84.51757812 C44.11514648 84.51757812 18.70514648 84.51757812 -7.47485352 84.51757812 C-7.80485352 83.85757813 -8.13485352 83.19757813 -8.47485352 82.51757812 C-9.46485352 82.18757813 -10.45485352 81.85757813 -11.47485352 81.51757812 C-11.5675124 71.54718785 -11.63859758 61.57689991 -11.6821022 51.60616684 C-11.70298178 46.97638497 -11.731306 42.34689755 -11.77661133 37.71728516 C-11.82005615 33.24986119 -11.84398784 28.78272053 -11.85436249 24.31510162 C-11.86175634 22.61021718 -11.87619484 20.90534833 -11.89777374 19.20058441 C-11.92679046 16.81339448 -11.93081038 14.42737682 -11.92895508 12.04003906 C-11.94333618 11.3344133 -11.95771729 10.62878754 -11.97253418 9.90177917 C-11.94583861 6.72962702 -11.63688396 4.77058729 -9.91365051 2.07977295 C-6.63380323 -0.02116471 -3.77421849 -0.04359967 0 0 Z M-3.47485352 6.51757812 C-3.47485352 7.17757813 -3.47485352 7.83757813 -3.47485352 8.51757812 C-4.13485352 8.51757812 -4.79485352 8.51757812 -5.47485352 8.51757812 C-5.47485352 30.95757813 -5.47485352 53.39757813 -5.47485352 76.51757812 C-2.62472657 77.9426416 -0.20769104 77.6448612 2.97851562 77.64697266 C3.64044418 77.64872498 4.30237274 77.65047729 4.98435974 77.65228271 C7.17636726 77.65669077 9.36829437 77.65376726 11.56030273 77.65039062 C13.07962561 77.65106388 14.59894837 77.65203409 16.11827087 77.65328979 C19.30346705 77.65476528 22.4886352 77.65261669 25.67382812 77.64794922 C29.7653555 77.64224717 33.85681735 77.64553488 37.94834232 77.65152168 C41.08548989 77.65512719 44.2226218 77.65398885 47.35976982 77.65139389 C48.86892136 77.65072484 50.3780743 77.65155228 51.8872242 77.65387344 C53.99191201 77.65640032 56.09649213 77.65255915 58.20117188 77.64697266 C59.40093155 77.64617706 60.60069122 77.64538147 61.83680725 77.64456177 C64.44340918 77.82363419 64.44340918 77.82363419 65.52514648 76.51757812 C65.61166259 75.10187689 65.63219552 73.68198312 65.62280273 72.26367188 C65.61958008 71.40966797 65.61635742 70.55566406 65.61303711 69.67578125 C65.6046582 68.77794922 65.5962793 67.88011719 65.58764648 66.95507812 C65.58313477 66.05337891 65.57862305 65.15167969 65.57397461 64.22265625 C65.56214873 61.98756499 65.54566869 59.75260376 65.52514648 57.51757812 C66.18514648 57.51757812 66.84514648 57.51757812 67.52514648 57.51757812 C67.52514648 42.99757812 67.52514648 28.47757812 67.52514648 13.51757812 C66.86514648 13.51757812 66.20514648 13.51757812 65.52514648 13.51757812 C65.56639648 12.73382812 65.60764648 11.95007813 65.65014648 11.14257812 C65.81243382 8.35641693 65.81243382 8.35641693 63.52514648 6.51757812 C60.61012381 6.22377986 60.61012381 6.22377986 57.14770508 6.29052734 C56.16703316 6.29008926 56.16703316 6.29008926 55.16654968 6.28964233 C53.00209352 6.29103748 50.83798013 6.30660693 48.67358398 6.32226562 C47.1742878 6.32599511 45.67498919 6.32884239 44.1756897 6.33084106 C40.22677905 6.33848264 36.27801519 6.35813553 32.3291626 6.38024902 C28.30076076 6.40069622 24.27233524 6.40984036 20.24389648 6.41992188 C12.33757907 6.44138102 4.43138103 6.47552318 -3.47485352 6.51757812 Z M66.52514648 68.51757812 C66.52514648 70.16757813 66.52514648 71.81757812 66.52514648 73.51757812 C66.85514648 73.51757812 67.18514648 73.51757812 67.52514648 73.51757812 C67.52514648 71.86757812 67.52514648 70.21757813 67.52514648 68.51757812 C67.19514648 68.51757812 66.86514648 68.51757812 66.52514648 68.51757812 Z M-10.47485352 79.51757812 C-9.47485352 81.51757812 -9.47485352 81.51757812 -9.47485352 81.51757812 Z " fill="#5A5B64" transform="translate(12.474853515625,0.482421875)"/>
<path d="M0 0 C1.60186157 -0.01891296 1.60186157 -0.01891296 3.23608398 -0.03820801 C4.95807007 -0.02606262 4.95807007 -0.02606262 6.71484375 -0.01367188 C7.89828369 -0.01749878 9.08172363 -0.02132568 10.30102539 -0.02526855 C12.80258027 -0.02798997 15.30416349 -0.02061291 17.80566406 -0.00390625 C21.63801424 0.01749809 25.46848949 -0.00370232 29.30078125 -0.02929688 C31.73047289 -0.02665364 34.16016337 -0.02152876 36.58984375 -0.01367188 C37.73783447 -0.0217688 38.8858252 -0.02986572 40.06860352 -0.03820801 C41.13651123 -0.02559937 42.20441895 -0.01299072 43.3046875 0 C44.7122229 0.00477356 44.7122229 0.00477356 46.14819336 0.00964355 C49.44209477 0.67776892 50.63037143 1.87234239 52.65234375 4.51757812 C53.16027832 6.49023438 53.16027832 6.49023438 53.16992188 8.58007812 C53.18253052 9.36769531 53.19513916 10.1553125 53.20812988 10.96679688 C53.20003296 11.80855469 53.19193604 12.6503125 53.18359375 13.51757812 C53.18742065 14.39027344 53.19124756 15.26296875 53.19519043 16.16210938 C53.19790865 18.00456905 53.19055369 19.84706737 53.17382812 21.68945312 C53.15241623 24.50803746 53.17363176 27.32407297 53.19921875 30.14257812 C53.19657546 31.93425041 53.19145044 33.72592111 53.18359375 35.51757812 C53.19169067 36.35933594 53.1997876 37.20109375 53.20812988 38.06835938 C53.19552124 38.85597656 53.1829126 39.64359375 53.16992188 40.45507812 C53.16514832 41.48955078 53.16514832 41.48955078 53.16027832 42.54492188 C52.40390794 45.48242376 51.02752845 46.68250012 48.65234375 48.51757812 C46.14819336 49.0255127 46.14819336 49.0255127 43.3046875 49.03515625 C41.70282593 49.05406921 41.70282593 49.05406921 40.06860352 49.07336426 C38.92061279 49.06526733 37.77262207 49.05717041 36.58984375 49.04882812 C34.81468384 49.05456848 34.81468384 49.05456848 33.00366211 49.0604248 C30.50210723 49.06314622 28.00052401 49.05576916 25.49902344 49.0390625 C21.66667326 49.01765816 17.83619801 49.03885857 14.00390625 49.06445312 C11.57421461 49.06180989 9.14452413 49.05668501 6.71484375 49.04882812 C4.99285767 49.06097351 4.99285767 49.06097351 3.23608398 49.07336426 C2.16817627 49.06075562 1.10026855 49.04814697 0 49.03515625 C-1.4075354 49.03038269 -1.4075354 49.03038269 -2.84350586 49.0255127 C-6.13740727 48.35738733 -7.32568393 47.16281386 -9.34765625 44.51757812 C-9.85559082 42.54492188 -9.85559082 42.54492188 -9.86523438 40.45507812 C-9.87784302 39.66746094 -9.89045166 38.87984375 -9.90344238 38.06835938 C-9.89534546 37.22660156 -9.88724854 36.38484375 -9.87890625 35.51757812 C-9.88273315 34.64488281 -9.88656006 33.7721875 -9.89050293 32.87304688 C-9.89322115 31.0305872 -9.88586619 29.18808888 -9.86914062 27.34570312 C-9.84772873 24.52711879 -9.86894426 21.71108328 -9.89453125 18.89257812 C-9.89188796 17.10090584 -9.88676294 15.30923514 -9.87890625 13.51757812 C-9.88700317 12.67582031 -9.8951001 11.8340625 -9.90344238 10.96679688 C-9.89083374 10.17917969 -9.8782251 9.3915625 -9.86523438 8.58007812 C-9.862052 7.89042969 -9.85886963 7.20078125 -9.85559082 6.49023438 C-8.52358767 1.31715797 -4.91097143 0.01665522 0 0 Z M-4.34765625 11.51757812 C-4.34765625 22.07757813 -4.34765625 32.63757813 -4.34765625 43.51757812 C12.81234375 43.51757812 29.97234375 43.51757812 47.65234375 43.51757812 C47.65234375 32.95757812 47.65234375 22.39757812 47.65234375 11.51757812 C30.49234375 11.51757812 13.33234375 11.51757812 -4.34765625 11.51757812 Z " fill="#636570" transform="translate(21.34765625,18.482421875)"/>
<path d="M0 0 C0.99 0 1.98 0 3 0 C4.38671875 1.6796875 4.38671875 1.6796875 5.6875 3.875 C6.12449219 4.59429687 6.56148437 5.31359375 7.01171875 6.0546875 C8 8 8 8 8 10 C11.3 10 14.6 10 18 10 C19.32229672 13.96689017 18.39032795 16.06722054 17.25 20.0625 C16.90453125 21.31160156 16.5590625 22.56070313 16.203125 23.84765625 C15 27 15 27 12 29 C9.6875 29.25878906 9.6875 29.25878906 7 29.265625 C5.5459375 29.26949219 5.5459375 29.26949219 4.0625 29.2734375 C3.051875 29.26570313 2.04125 29.25796875 1 29.25 C-0.010625 29.25773437 -1.02125 29.26546875 -2.0625 29.2734375 C-3.031875 29.27085938 -4.00125 29.26828125 -5 29.265625 C-5.886875 29.26336914 -6.77375 29.26111328 -7.6875 29.25878906 C-10 29 -10 29 -13 27 C-13.89092135 24.28963213 -14.61503152 21.70586636 -15.25 18.9375 C-15.435625 18.19177734 -15.62125 17.44605469 -15.8125 16.67773438 C-16.26334592 14.79750196 -16.63821324 12.89938051 -17 11 C-16 10 -16 10 -13.71484375 9.90234375 C-12.34005859 9.91974609 -12.34005859 9.91974609 -10.9375 9.9375 C-10.01839844 9.94652344 -9.09929688 9.95554687 -8.15234375 9.96484375 C-7.44207031 9.97644531 -6.73179688 9.98804688 -6 10 C-5.62875 8.9171875 -5.62875 8.9171875 -5.25 7.8125 C-3.86858872 4.70432462 -2.33146746 2.47276852 0 0 Z M0 5 C-1.6446674 7.46326712 -1.6446674 7.46326712 -3 10 C-0.36 10 2.28 10 5 10 C3.6446674 7.46326712 3.6446674 7.46326712 2 5 C1.34 5 0.68 5 0 5 Z M0 18 C0 18.66 0 19.32 0 20 C0.66 20 1.32 20 2 20 C2 19.34 2 18.68 2 18 C1.34 18 0.68 18 0 18 Z " fill="#646671" transform="translate(42,32)"/>
<path d="M0 0 C2 1 2 1 2 1 Z " fill="#64646F" transform="translate(25,10)"/>
<path d="" fill="#555555" transform="translate(0,0)"/>
<path d="" fill="#555555" transform="translate(0,0)"/>
<path d="" fill="#555555" transform="translate(0,0)"/>
</svg>
